<mxfile host="Electron" agent="Mozilla/5.0 (Windows NT 10.0; Win64; x64) AppleWebKit/537.36 (KHTML, like Gecko) draw.io/28.1.2 Chrome/138.0.7204.243 Electron/37.4.0 Safari/537.36" version="28.1.2">
  <diagram name="PÃ¡gina-1" id="OJTGzdidGj1a-O8_1i7z">
    <mxGraphModel dx="1106" dy="661" grid="1" gridSize="10" guides="1" tooltips="1" connect="1" arrows="1" fold="1" page="1" pageScale="1" pageWidth="827" pageHeight="1169" math="0" shadow="0">
      <root>
        <mxCell id="0" />
        <mxCell id="1" parent="0" />
        <mxCell id="TZVWjd8LhGXCeM61Y9x9-11" value="" style="edgeStyle=orthogonalEdgeStyle;rounded=0;orthogonalLoop=1;jettySize=auto;html=1;" edge="1" parent="1" source="TZVWjd8LhGXCeM61Y9x9-1" target="TZVWjd8LhGXCeM61Y9x9-10">
          <mxGeometry relative="1" as="geometry" />
        </mxCell>
        <mxCell id="TZVWjd8LhGXCeM61Y9x9-1" value="&lt;font style=&quot;font-size: 30px; color: rgb(255, 255, 255);&quot;&gt;Llibre&lt;/font&gt;" style="rounded=0;whiteSpace=wrap;html=1;fillColor=#007FFF;" vertex="1" parent="1">
          <mxGeometry x="340" y="250" width="120" height="60" as="geometry" />
        </mxCell>
        <mxCell id="TZVWjd8LhGXCeM61Y9x9-21" value="" style="edgeStyle=orthogonalEdgeStyle;rounded=0;orthogonalLoop=1;jettySize=auto;html=1;" edge="1" parent="1" source="TZVWjd8LhGXCeM61Y9x9-2" target="TZVWjd8LhGXCeM61Y9x9-19">
          <mxGeometry relative="1" as="geometry" />
        </mxCell>
        <mxCell id="TZVWjd8LhGXCeM61Y9x9-2" value="&lt;font style=&quot;font-size: 31px; color: rgb(255, 255, 255);&quot;&gt;Genere&lt;/font&gt;" style="rounded=0;whiteSpace=wrap;html=1;fillColor=#007FFF;" vertex="1" parent="1">
          <mxGeometry x="630" y="250" width="120" height="60" as="geometry" />
        </mxCell>
        <mxCell id="TZVWjd8LhGXCeM61Y9x9-4" value="&lt;font style=&quot;font-size: 25px; color: rgb(255, 255, 255);&quot;&gt;Autor&lt;/font&gt;" style="rounded=0;whiteSpace=wrap;html=1;fillColor=#007FFF;" vertex="1" parent="1">
          <mxGeometry x="210" y="80" width="120" height="60" as="geometry" />
        </mxCell>
        <mxCell id="TZVWjd8LhGXCeM61Y9x9-5" value="&lt;font style=&quot;font-size: 27px; color: rgb(255, 255, 255);&quot;&gt;Editorial&lt;/font&gt;" style="rounded=0;whiteSpace=wrap;html=1;fillColor=#007FFF;" vertex="1" parent="1">
          <mxGeometry x="80" y="250" width="120" height="60" as="geometry" />
        </mxCell>
        <mxCell id="TZVWjd8LhGXCeM61Y9x9-6" value="" style="endArrow=none;html=1;rounded=0;exitX=0;exitY=0.5;exitDx=0;exitDy=0;entryX=1;entryY=0.5;entryDx=0;entryDy=0;" edge="1" parent="1" source="TZVWjd8LhGXCeM61Y9x9-2" target="TZVWjd8LhGXCeM61Y9x9-1">
          <mxGeometry width="50" height="50" relative="1" as="geometry">
            <mxPoint x="390" y="370" as="sourcePoint" />
            <mxPoint x="440" y="320" as="targetPoint" />
          </mxGeometry>
        </mxCell>
        <mxCell id="TZVWjd8LhGXCeM61Y9x9-7" value="" style="endArrow=none;html=1;rounded=0;exitX=1;exitY=0.5;exitDx=0;exitDy=0;entryX=0;entryY=0.5;entryDx=0;entryDy=0;" edge="1" parent="1" source="TZVWjd8LhGXCeM61Y9x9-5" target="TZVWjd8LhGXCeM61Y9x9-1">
          <mxGeometry width="50" height="50" relative="1" as="geometry">
            <mxPoint x="390" y="370" as="sourcePoint" />
            <mxPoint x="440" y="320" as="targetPoint" />
          </mxGeometry>
        </mxCell>
        <mxCell id="TZVWjd8LhGXCeM61Y9x9-8" value="" style="endArrow=none;html=1;rounded=0;entryX=0.5;entryY=1;entryDx=0;entryDy=0;exitX=0.5;exitY=0;exitDx=0;exitDy=0;" edge="1" parent="1" source="TZVWjd8LhGXCeM61Y9x9-1" target="TZVWjd8LhGXCeM61Y9x9-4">
          <mxGeometry width="50" height="50" relative="1" as="geometry">
            <mxPoint x="390" y="370" as="sourcePoint" />
            <mxPoint x="440" y="320" as="targetPoint" />
            <Array as="points">
              <mxPoint x="270" y="250" />
            </Array>
          </mxGeometry>
        </mxCell>
        <mxCell id="TZVWjd8LhGXCeM61Y9x9-10" value="TITOL&lt;span style=&quot;color: rgba(0, 0, 0, 0); font-family: monospace; font-size: 0px; text-align: start; text-wrap-mode: nowrap;&quot;&gt;%3CmxGraphModel%3E%3Croot%3E%3CmxCell%20id%3D%220%22%2F%3E%3CmxCell%20id%3D%221%22%20parent%3D%220%22%2F%3E%3CmxCell%20id%3D%222%22%20value%3D%22%22%20style%3D%22rounded%3D0%3BwhiteSpace%3Dwrap%3Bhtml%3D1%3BfillColor%3D%23007FFF%3B%22%20vertex%3D%221%22%20parent%3D%221%22%3E%3CmxGeometry%20x%3D%22110%22%20y%3D%22150%22%20width%3D%22120%22%20height%3D%2260%22%20as%3D%22geometry%22%2F%3E%3C%2FmxCell%3E%3C%2Froot%3E%3C%2FmxGraphModel%3E&lt;/span&gt;" style="ellipse;whiteSpace=wrap;html=1;fillColor=#FFFF33;" vertex="1" parent="1">
          <mxGeometry x="320" y="350" width="70" height="40" as="geometry" />
        </mxCell>
        <mxCell id="TZVWjd8LhGXCeM61Y9x9-13" value="ANY" style="ellipse;whiteSpace=wrap;html=1;fillColor=#FFFF33;" vertex="1" parent="1">
          <mxGeometry x="414" y="350" width="70" height="40" as="geometry" />
        </mxCell>
        <mxCell id="TZVWjd8LhGXCeM61Y9x9-14" value="" style="endArrow=classic;html=1;rounded=0;exitX=0.5;exitY=1;exitDx=0;exitDy=0;entryX=0.5;entryY=0;entryDx=0;entryDy=0;" edge="1" parent="1" source="TZVWjd8LhGXCeM61Y9x9-1" target="TZVWjd8LhGXCeM61Y9x9-13">
          <mxGeometry width="50" height="50" relative="1" as="geometry">
            <mxPoint x="390" y="370" as="sourcePoint" />
            <mxPoint x="440" y="320" as="targetPoint" />
            <Array as="points">
              <mxPoint x="400" y="330" />
              <mxPoint x="449" y="330" />
            </Array>
          </mxGeometry>
        </mxCell>
        <mxCell id="TZVWjd8LhGXCeM61Y9x9-15" value="&lt;font style=&quot;color: rgb(255, 255, 255); font-size: 16px;&quot;&gt;Es secuela de&lt;/font&gt;" style="rhombus;whiteSpace=wrap;html=1;rotation=45;gradientColor=none;fillColor=#009900;" vertex="1" parent="1">
          <mxGeometry x="450" y="130" width="120" height="80" as="geometry" />
        </mxCell>
        <mxCell id="TZVWjd8LhGXCeM61Y9x9-16" value="" style="endArrow=none;html=1;rounded=0;entryX=0;entryY=0.5;entryDx=0;entryDy=0;" edge="1" parent="1" target="TZVWjd8LhGXCeM61Y9x9-15">
          <mxGeometry width="50" height="50" relative="1" as="geometry">
            <mxPoint x="360" y="250" as="sourcePoint" />
            <mxPoint x="450" y="170" as="targetPoint" />
          </mxGeometry>
        </mxCell>
        <mxCell id="TZVWjd8LhGXCeM61Y9x9-17" value="" style="endArrow=none;html=1;rounded=0;entryX=1;entryY=0.5;entryDx=0;entryDy=0;exitX=1;exitY=0.75;exitDx=0;exitDy=0;" edge="1" parent="1" source="TZVWjd8LhGXCeM61Y9x9-1" target="TZVWjd8LhGXCeM61Y9x9-15">
          <mxGeometry width="50" height="50" relative="1" as="geometry">
            <mxPoint x="460" y="280" as="sourcePoint" />
            <mxPoint x="510" y="230" as="targetPoint" />
          </mxGeometry>
        </mxCell>
        <mxCell id="TZVWjd8LhGXCeM61Y9x9-18" value="&lt;u&gt;ID&lt;/u&gt;&lt;span style=&quot;color: rgba(0, 0, 0, 0); font-family: monospace; font-size: 0px; text-align: start; text-wrap-mode: nowrap;&quot;&gt;%3CmxGraphModel%3E%3Croot%3E%3CmxCell%20id%3D%220%22%2F%3E%3CmxCell%20id%3D%221%22%20parent%3D%220%22%2F%3E%3CmxCell%20id%3D%222%22%20value%3D%22%22%20style%3D%22rounded%3D0%3BwhiteSpace%3Dwrap%3Bhtml%3D1%3BfillColor%3D%23007FFF%3B%22%20vertex%3D%221%22%20parent%3D%221%22%3E%3CmxGeometry%20x%3D%22110%22%20y%3D%22150%22%20width%3D%22120%22%20height%3D%2260%22%20as%3D%22geometry%22%2F%3E%3C%2FmxCell%3E%3C%2Froot%3E%3C%2FmxGraphModel%3E&lt;/span&gt;" style="ellipse;whiteSpace=wrap;html=1;fillColor=#FFFF33;" vertex="1" parent="1">
          <mxGeometry x="600" y="350" width="70" height="40" as="geometry" />
        </mxCell>
        <mxCell id="TZVWjd8LhGXCeM61Y9x9-19" value="TIPUS" style="ellipse;whiteSpace=wrap;html=1;fillColor=#FFFF33;" vertex="1" parent="1">
          <mxGeometry x="694" y="350" width="70" height="40" as="geometry" />
        </mxCell>
        <mxCell id="TZVWjd8LhGXCeM61Y9x9-22" value="" style="endArrow=classic;html=1;rounded=0;exitX=0.5;exitY=1;exitDx=0;exitDy=0;entryX=0.5;entryY=0;entryDx=0;entryDy=0;" edge="1" parent="1" source="TZVWjd8LhGXCeM61Y9x9-2" target="TZVWjd8LhGXCeM61Y9x9-18">
          <mxGeometry width="50" height="50" relative="1" as="geometry">
            <mxPoint x="400" y="190" as="sourcePoint" />
            <mxPoint x="450" y="140" as="targetPoint" />
            <Array as="points">
              <mxPoint x="690" y="330" />
              <mxPoint x="635" y="330" />
            </Array>
          </mxGeometry>
        </mxCell>
      </root>
    </mxGraphModel>
  </diagram>
</mxfile>
